<svg width="419" height="418" xmlns="http://www.w3.org/2000/svg" xmlns:xlink="http://www.w3.org/1999/xlink" overflow="hidden"><defs><clipPath id="clip0"><rect x="0" y="151" width="419" height="418"/></clipPath></defs><g clip-path="url(#clip0)" transform="matrix(1 0 0 1 0 -151)"><path d="M0 0 126.405 0 126.405 126.488-2.53454e-06 126.488Z" fill="#FB4725" transform="matrix(1.00242 0 0 1 0.369025 151)"/><path d="M142.766 0 273.407 0 273.407 126.488 142.766 126.488Z" fill="#FF7B39" transform="matrix(1.00242 0 0 1 0.369025 151)"/><path d="M289.685 0 416.173 0 416.173 126.488 289.685 126.488Z" fill="#FC9B3A" transform="matrix(1.00242 0 0 1 0.369025 151)"/><path d="M0 144.095 126.405 144.095 126.405 274.736-2.53454e-06 274.736Z" fill="#22B45C" transform="matrix(1.00242 0 0 1 0.369025 151)"/><path d="M142.766 144.095 273.407 144.095 273.407 274.736 142.766 274.736Z" fill="#91CA06" transform="matrix(1.00242 0 0 1 0.369025 151)"/><path d="M289.685 144.095 416.173 144.095 416.173 274.736 289.685 274.736Z" fill="#D6D230" transform="matrix(1.00242 0 0 1 0.369025 151)"/><path d="M0 291.512 126.405 291.512 126.405 418-2.53454e-06 418Z" fill="#0066B6" transform="matrix(1.00242 0 0 1 0.369025 151)"/><path d="M142.766 291.512 273.407 291.512 273.407 418 142.766 418Z" fill="#429ACC" transform="matrix(1.00242 0 0 1 0.369025 151)"/><path d="M289.685 291.512 416.173 291.512 416.173 418 289.685 418Z" fill="#6CBADD" transform="matrix(1.00242 0 0 1 0.369025 151)"/><path d="M53.9837 104.396 75.5772 104.396 75.5772 40.4463 99.6622 40.4463 99.6622 22.1748 29.0682 22.1748 29.0682 40.4463 53.9837 40.4463Z" fill="#FFFFFF" transform="matrix(1.00242 0 0 1 0.369025 151)"/><path d="M197.663 22.1748 219.257 22.1748 219.257 104.396 197.663 104.396Z" fill="#FFFFFF" transform="matrix(1.00242 0 0 1 0.369025 151)"/><path d="M335.53 48.4192 360.777 104.396 389.513 104.396 389.513 22.1748 369.581 22.1748 369.581 78.7332 344.665 22.1748 315.597 22.1748 315.597 104.396 335.53 104.396Z" fill="#FFFFFF" transform="matrix(1.00242 0 0 1 0.369025 151)"/><path d="M100.825 167.516 74.6636 167.516 49.8311 197.746 49.8311 167.516 28.2376 167.516 28.2376 249.737 49.8311 249.737 49.8311 216.433 76.3247 249.737 103.483 249.737 66.0262 206.218Z" fill="#FFFFFF" transform="matrix(1.00242 0 0 1 0.369025 151)"/><path d="M234.206 233.957 199.324 233.957 199.324 215.686 231.715 215.686 231.715 199.906 199.324 199.906 199.324 184.126 232.545 184.126 232.545 167.516 177.731 167.516 177.731 249.737 234.206 249.737Z" fill="#FFFFFF" transform="matrix(1.00242 0 0 1 0.369025 151)"/><path d="M381.208 190.189C381.208 176.07 370.162 167.516 351.642 167.516L318.919 167.516 318.919 249.737 339.682 249.737 339.682 217.347 344.001 217.347C351.143 217.347 352.638 219.589 356.043 228.725L363.518 249.737 386.773 249.737 375.727 221.748C373.401 216.018 371.159 212.114 367.421 209.623 376.308 206.301 381.208 199.408 381.208 190.189ZM359.615 191.85C359.615 199.989 351.891 201.65 345.413 201.65L339.682 201.65 339.682 183.379 345.911 183.379C355.794 183.295 359.615 185.704 359.615 191.85Z" fill="#FFFFFF" transform="matrix(1.00242 0 0 1 0.369025 151)"/><path d="M87.8689 376.474C83.301 378.55 77.9857 379.547 72.006 379.547 56.4753 379.547 47.1735 369.996 47.1735 354.05 47.1735 338.769 57.3058 328.553 72.3382 328.553 77.4043 328.553 83.1349 329.633 87.6197 331.543L90.3604 332.706 91.274 315.182 89.696 314.684C83.5502 312.856 76.0755 311.777 69.5975 311.777 43.6853 311.777 24.8325 329.55 24.8325 354.05 24.9156 367.089 29.2343 377.886 37.5394 385.361 45.4294 392.503 56.5583 396.323 69.6805 396.323 77.2382 396.323 84.5468 395.078 90.1943 392.918L91.6062 392.337 90.6096 375.228 87.8689 376.474Z" fill="#FFFFFF" transform="matrix(1.00242 0 0 1 0.369025 151)"/><path d="M195.919 312.856 164.609 395.078 186.119 395.078 193.179 375.145 223.41 375.145 230.303 395.078 252.81 395.078 221.416 312.856 195.919 312.856ZM218.343 359.365 198.245 359.365 208.46 331.875 218.343 359.365Z" fill="#FFFFFF" transform="matrix(1.00242 0 0 1 0.369025 151)"/><path d="M345.994 312.856 316.428 312.856 316.428 395.078 343.835 395.078C372.238 395.078 389.264 379.298 389.264 352.887 389.264 327.141 373.899 312.856 345.994 312.856ZM367.006 352.887C367.006 369.913 358.12 379.298 341.343 379.298L338.021 379.298 338.021 328.636 343.336 328.636C358.618 328.636 367.006 337.523 367.006 352.887Z" fill="#FFFFFF" transform="matrix(1.00242 0 0 1 0.369025 151)"/><path d="M516.333 188.528 553.541 96.2571 562.51 96.2571 599.884 188.528 591.329 188.528 581.363 162.948 534.439 162.948 524.223 188.528 516.333 188.528ZM537.346 155.556 578.456 155.556 557.942 103.898 537.346 155.556Z" fill="#595959" transform="matrix(1.00242 0 0 1 0.369025 151)"/><path d="M618.404 156.387C618.404 171.917 627.125 182.299 643.154 182.299 659.183 182.299 667.903 171.917 667.903 156.387L667.903 96.1741 676.208 96.1741 676.208 156.387C676.208 176.734 663.584 190.023 643.154 190.023 622.391 190.023 610.099 176.9 610.099 156.387L610.099 96.1741 618.404 96.1741 618.404 156.387Z" fill="#595959" transform="matrix(1.00242 0 0 1 0.369025 151)"/><path d="M715.741 188.528 715.741 103.732 688.749 103.732 688.749 96.2571 751.204 96.2571 751.204 103.732 724.046 103.732 724.046 188.528 715.741 188.528Z" fill="#595959" transform="matrix(1.00242 0 0 1 0.369025 151)"/><path d="M755.024 142.434C755.024 117.684 768.147 94.8452 795.471 94.8452 823.542 94.8452 835.917 117.02 835.917 142.434 835.917 167.35 822.795 190.023 795.471 190.023 788.411 190.023 782.349 188.777 777.199 186.285 762.001 178.561 755.024 161.785 755.024 142.434ZM795.471 182.299C817.895 182.299 827.197 162.117 827.197 142.434 827.197 122.751 817.895 102.569 795.471 102.569 773.296 102.569 763.745 123.083 763.745 142.434 763.745 152.234 766.236 162.117 771.386 169.675 776.535 177.067 784.425 182.299 795.471 182.299Z" fill="#595959" transform="matrix(1.00242 0 0 1 0.369025 151)"/><path d="M855.517 188.528 855.517 96.2571 876.862 96.2571C906.345 96.2571 924.616 111.373 924.616 141.105 924.616 174.326 902.608 188.611 871.712 188.611L855.517 188.611ZM863.822 181.053 871.546 181.053C898.704 181.053 915.813 169.675 915.813 141.022 915.813 116.522 901.445 103.649 877.028 103.649L863.739 103.649 863.739 181.053Z" fill="#595959" transform="matrix(1.00242 0 0 1 0.369025 151)"/><path d="M942.556 188.528 942.556 96.2571 986.739 96.2571 986.739 103.732 950.861 103.732 950.861 137.534 984.746 137.534 984.746 144.759 950.861 144.759 950.861 181.053 988.234 181.053 988.234 188.528 942.556 188.528Z" fill="#595959" transform="matrix(1.00242 0 0 1 0.369025 151)"/><path d="M1003.1 177.482C1009.16 181.219 1016.22 182.299 1021.79 182.299 1033.83 182.299 1042.72 176.734 1042.72 164.027 1042.72 155.307 1035.91 150.158 1027.1 145.175L1018.8 140.441C1010.24 135.624 1004.01 129.81 1004.01 119.096 1004.01 102.486 1018.13 94.7622 1032.5 94.7622 1038.07 94.7622 1043.3 95.5927 1048.7 97.669L1047.87 105.974C1043.05 103.649 1037.65 102.486 1032.25 102.486 1022.04 102.486 1012.57 107.054 1012.57 118.681 1012.57 126.322 1017.3 130.308 1025.03 134.627L1033.33 139.361C1043.05 144.925 1051.44 151.57 1051.44 164.11 1051.44 180.555 1037.98 190.023 1021.37 190.023 1014.31 190.023 1008.25 188.943 1001.69 186.036L1003.1 177.482Z" fill="#595959" transform="matrix(1.00242 0 0 1 0.369025 151)"/><path d="M1071.45 188.528 1071.45 96.2571 1079.76 96.2571 1079.76 138.364 1122.11 96.2571 1132.74 96.2571 1087.73 139.61 1136.56 188.611 1125.1 188.611 1079.67 141.936 1079.67 188.528 1071.45 188.528Z" fill="#595959" transform="matrix(1.00242 0 0 1 0.369025 151)"/><path d="M1140.55 106.223C1140.55 100.161 1145.53 95.1774 1151.6 95.1774 1157.74 95.1774 1162.64 100.161 1162.64 106.223 1162.64 112.369 1157.66 117.352 1151.6 117.352 1150.1 117.352 1148.61 117.103 1147.28 116.522 1143.37 114.778 1140.55 110.874 1140.55 106.223ZM1151.68 115.774C1156.83 115.774 1160.98 111.456 1160.98 106.306 1160.98 101.157 1156.83 96.8385 1151.68 96.8385 1146.53 96.8385 1142.38 101.157 1142.38 106.306 1142.38 108.881 1143.37 111.206 1145.12 113.034 1146.78 114.612 1149.11 115.774 1151.68 115.774ZM1147.53 112.452 1147.53 99.4961 1151.43 99.4961C1153.76 99.4961 1155.75 100.493 1155.75 102.901 1155.75 104.562 1154.17 105.725 1152.51 106.057 1153.51 106.306 1154.09 106.805 1154.5 107.718L1156.66 112.452 1154.84 112.452 1152.93 108.3C1152.34 107.054 1151.85 106.556 1150.19 106.556L1149.02 106.556 1149.02 112.369 1147.53 112.369ZM1149.19 105.144 1150.68 105.144C1152.34 105.144 1154.01 104.728 1154.01 102.984 1154.01 101.323 1152.26 101.074 1150.6 101.074L1149.19 101.074 1149.19 105.144Z" fill="#595959" transform="matrix(1.00242 0 0 1 0.369025 151)"/><path d="M531.366 327.806 531.366 247.91 503.294 247.91 503.294 235.452 574.719 235.452 574.719 247.91 546.481 247.91 546.481 327.806 531.366 327.806Z" fill="#595959" transform="matrix(1.00242 0 0 1 0.369025 151)"/><path d="M591.495 327.806 591.495 235.535 606.611 235.535 606.611 327.806 591.495 327.806Z" fill="#595959" transform="matrix(1.00242 0 0 1 0.369025 151)"/><path d="M633.021 327.806 633.021 235.535 654.615 235.535 694.646 314.185 694.646 235.535 708.349 235.535 708.349 327.806 686.59 327.806 646.559 249.156 646.559 327.806 633.021 327.806Z" fill="#595959" transform="matrix(1.00242 0 0 1 0.369025 151)"/><path d="M734.677 327.806 734.677 235.535 749.792 235.535 749.792 276.397 786.999 235.535 805.271 235.535 763.579 278.722 808.842 327.889 789.491 327.889 749.792 282.792 749.792 327.889 734.677 327.889Z" fill="#595959" transform="matrix(1.00242 0 0 1 0.369025 151)"/><path d="M824.788 327.806 824.788 235.535 877.775 235.535 877.775 246.747 839.571 246.747 839.571 275.151 875.948 275.151 875.948 286.197 839.654 286.197 839.654 316.677 879.27 316.677 879.27 327.889 824.788 327.889Z" fill="#595959" transform="matrix(1.00242 0 0 1 0.369025 151)"/><path d="M900.78 327.806 900.78 235.535 928.188 235.535C944.383 235.535 961.408 239.854 961.408 259.371 961.408 271.58 951.857 279.885 940.23 281.629 946.708 282.625 951.027 287.443 953.768 294.253L967.471 327.889 951.027 327.889 939.649 299.236C935.911 289.851 932.589 287.193 923.038 287.193L915.564 287.193 915.564 327.889 900.78 327.889ZM915.564 276.064 924.949 276.064C935.081 276.064 945.961 272.161 945.961 260.451 945.961 248.574 936.576 246.498 925.447 246.498L915.481 246.498 915.481 276.064Z" fill="#595959" transform="matrix(1.00242 0 0 1 0.369025 151)"/><path d="M1052.6 325.314C1046.12 328.221 1037.23 329.301 1030.01 329.301 1000.69 329.301 981.175 311.278 981.175 281.712 981.175 253.474 1001.77 234.123 1030.01 234.123 1037.07 234.123 1045.79 235.203 1052.27 237.611L1051.44 249.82C1045.79 247.162 1038.15 245.917 1031.67 245.917 1010.08 245.917 996.955 261.115 996.955 281.795 996.955 303.139 1009.41 317.673 1031.42 317.673 1038.48 317.673 1045.54 316.594 1051.77 313.687L1052.6 325.314Z" fill="#595959" transform="matrix(1.00242 0 0 1 0.369025 151)"/><path d="M1060.24 327.806 1096.2 235.535 1115.14 235.535 1151.43 327.806 1135.65 327.806 1126.76 303.555 1083.99 303.555 1074.86 327.806 1060.24 327.806ZM1087.81 292.509 1123.11 292.509 1105.5 246.166 1087.81 292.509Z" fill="#595959" transform="matrix(1.00242 0 0 1 0.369025 151)"/><path d="M1167.04 327.806 1167.04 235.535 1195.45 235.535C1225.18 235.535 1242.62 250.069 1242.62 280.383 1242.62 312.524 1221.69 327.889 1191.3 327.889L1167.04 327.889ZM1182.16 316.594 1189.8 316.594C1213.64 316.594 1226.93 304.8 1226.93 280.3 1226.93 259.122 1215.71 246.664 1193.95 246.664L1182.16 246.664 1182.16 316.594Z" fill="#595959" transform="matrix(1.00242 0 0 1 0.369025 151)"/><path d="M1255.16 245.501C1255.16 239.439 1260.15 234.455 1266.21 234.455 1272.35 234.455 1277.25 239.439 1277.25 245.501 1277.25 251.647 1272.27 256.63 1266.21 256.63 1264.71 256.63 1263.22 256.381 1261.89 255.8 1257.99 254.056 1255.16 250.152 1255.16 245.501ZM1266.29 255.052C1271.44 255.052 1275.59 250.734 1275.59 245.584 1275.59 240.435 1271.44 236.116 1266.29 236.116 1261.14 236.116 1256.99 240.435 1256.99 245.584 1256.99 248.159 1257.99 250.484 1259.73 252.312 1261.39 253.89 1263.72 255.052 1266.29 255.052ZM1262.14 251.73 1262.14 238.774 1266.04 238.774C1268.37 238.774 1270.36 239.771 1270.36 242.179 1270.36 243.84 1268.78 245.003 1267.12 245.335 1268.12 245.584 1268.7 246.083 1269.12 246.996L1271.27 251.73 1269.45 251.73 1267.62 247.578C1267.04 246.332 1266.54 245.834 1264.88 245.834L1263.72 245.834 1263.72 251.647 1262.14 251.647ZM1263.8 244.422 1265.3 244.422C1266.96 244.422 1268.62 244.006 1268.62 242.262 1268.62 240.601 1266.87 240.352 1265.21 240.352L1263.8 240.352 1263.8 244.422Z" fill="#595959" transform="matrix(1.00242 0 0 1 0.369025 151)"/></g></svg>