<?xml version="1.0" standalone="no"?>
<!DOCTYPE svg PUBLIC "-//W3C//DTD SVG 1.1//EN" "http://www.w3.org/Graphics/SVG/1.1/DTD/svg11.dtd"><svg
    viewBox="0 0 503.3 503.3" version="1.1" xmlns="http://www.w3.org/2000/svg" xmlns:xlink="http://www.w3.org/1999/xlink"
    style="block-size:517.938px;height:517.938px;inline-size:517.938px;perspective-origin:258.962px 258.962px;transform-origin:258.969px 258.969px;width:517.938px;">
    <defs
        style="block-size:auto;height:auto;inline-size:auto;overflow-x:visible;overflow-y:visible;perspective-origin:0px 0px;transform-origin:0px 0px;width:auto;">
        <style
            style="block-size:auto;height:auto;inline-size:auto;overflow-x:visible;overflow-y:visible;perspective-origin:50% 50%;transform-origin:0px 0px;width:auto;">
            .cls-1 {
                fill: #bfbfbf;
            }
        </style>
    </defs>
    <title
        style="block-size:auto;height:auto;inline-size:auto;overflow-x:visible;overflow-y:visible;perspective-origin:50% 50%;transform-origin:0px 0px;width:auto;">
        icon-2019-logo-tinkercad-wordmark--white</title>
    <g id="Layer_4" data-name="Layer 4"
        style="block-size:auto;height:auto;inline-size:auto;overflow-x:visible;overflow-y:visible;perspective-origin:0px 0px;transform-origin:0px 0px;width:auto;">
        <path class="cls-1" d="M0,0V152.3H152.2V0ZM119,48.7H90v77H64v-77H34v-22h85Z"
            style="block-size:auto;d:path(&quot;M 0 0 V 152.3 H 152.2 V 0 Z M 119 48.7 H 90 V 125.7 H 64 V 48.7 H 34 V 26.7 H 119 Z&quot;);fill:rgb(191, 191, 191);height:auto;inline-size:auto;overflow-x:visible;overflow-y:visible;perspective-origin:0px 0px;transform-origin:0px 0px;width:auto;" />
        <path class="cls-1" d="M172.12,0V152.3h157.3V0Zm91.66,125.7h-26v-99h26Z"
            style="block-size:auto;d:path(&quot;M 172.12 0 V 152.3 H 329.42 V 0 Z M 263.78 125.7 H 237.78 V 26.7 H 263.78 Z&quot;);fill:rgb(191, 191, 191);height:auto;inline-size:auto;overflow-x:visible;overflow-y:visible;perspective-origin:0px 0px;transform-origin:0px 0px;width:auto;" />
        <path class="cls-1" d="M348.58,0V152.3h152.3V0ZM469.22,125.7h-34.6l-30.4-67.4v67.4h-24v-99h35l30,68.1V26.7h24Z"
            style="block-size:auto;d:path(&quot;M 348.58 0 V 152.3 H 500.88 V 0 Z M 469.22 125.7 H 434.62 L 404.22 58.3 V 125.7 H 380.22 V 26.7 H 415.22 L 445.22 94.8 V 26.7 H 469.22 Z&quot;);fill:rgb(191, 191, 191);height:auto;inline-size:auto;overflow-x:visible;overflow-y:visible;perspective-origin:0px 0px;transform-origin:0px 0px;width:auto;" />
        <path class="cls-1"
            d="M0,173.5V330.8H152.2V173.5ZM91.9,300.7,60,260.6v40.1H34v-99H60v36.4l29.9-36.4h31.5L79.5,248.3l45.1,52.4Z"
            style="block-size:auto;d:path(&quot;M 0 173.5 V 330.8 H 152.2 V 173.5 Z M 91.9 300.7 L 60 260.6 V 300.7 H 34 V 201.7 H 60 V 238.1 L 89.9 201.7 H 121.4 L 79.5 248.3 L 124.6 300.7 Z&quot;);fill:rgb(191, 191, 191);height:auto;inline-size:auto;overflow-x:visible;overflow-y:visible;perspective-origin:0px 0px;transform-origin:0px 0px;width:auto;" />
        <path class="cls-1" d="M171.9,173.5V330.8H329.2V173.5ZM282,300.7H214v-99h66v20H240v19h39v19H240v22h42Z"
            style="block-size:auto;d:path(&quot;M 171.9 173.5 V 330.8 H 329.2 V 173.5 Z M 282 300.7 H 214 V 201.7 H 280 V 221.7 H 240 V 240.7 H 279 V 259.7 H 240 V 281.7 H 282 Z&quot;);fill:rgb(191, 191, 191);height:auto;inline-size:auto;overflow-x:visible;overflow-y:visible;perspective-origin:0px 0px;transform-origin:0px 0px;width:auto;" />
        <path class="cls-1"
            d="M348.75,173.5V330.8h152.3V173.5Zm91,127.2-9-25.3c-4.1-11-5.9-13.7-14.5-13.7h-5.2v39h-25v-99h39.4c22.3,0,35.6,10.3,35.6,27.3,0,11.1-5.9,19.4-16.6,23.4,4.5,3,7.2,7.7,10,14.6l13.3,33.7Z"
            style="block-size:auto;d:path(&quot;M 348.75 173.5 V 330.8 H 501.05 V 173.5 Z M 439.75 300.7 L 430.75 275.4 C 426.65 264.4 424.85 261.7 416.25 261.7 H 411.05 V 300.7 H 386.05 V 201.7 H 425.45 C 447.75 201.7 461.05 212 461.05 229 C 461.05 240.1 455.15 248.4 444.45 252.4 C 448.95 255.4 451.65 260.1 454.45 267 L 467.75 300.7 Z&quot;);fill:rgb(191, 191, 191);height:auto;inline-size:auto;overflow-x:visible;overflow-y:visible;perspective-origin:0px 0px;transform-origin:0px 0px;width:auto;" />
        <path class="cls-1" d="M418.55,220.8h-7.5v22H418c7.8,0,17.1-2,17.1-11.8C435.05,223.6,430.45,220.7,418.55,220.8Z"
            style="block-size:auto;d:path(&quot;M 418.55 220.8 H 411.05 V 242.8 H 418 C 425.8 242.8 435.1 240.8 435.1 231 C 435.05 223.6 430.45 220.7 418.55 220.8 Z&quot;);fill:rgb(191, 191, 191);height:auto;inline-size:auto;overflow-x:visible;overflow-y:visible;perspective-origin:0px 0px;transform-origin:0px 0px;width:auto;" />
        <path class="cls-1"
            d="M0,351V503.3H152.2V351ZM109.6,473.1a71.38,71.38,0,0,1-24.7,4.1c-15.8,0-29.2-4.6-38.7-13.2-10-9-15.2-22-15.3-37.7,0-29.5,22.7-50.9,53.9-50.9a89.61,89.61,0,0,1,24.2,3.5l1.9.6-1.1,21.1-3.3-1.4a49.44,49.44,0,0,0-18.4-3.6c-18.1,0-30.3,12.3-30.3,30.7C57.8,445.5,69,457,87.7,457a45.85,45.85,0,0,0,19.1-3.7l3.3-1.5,1.2,20.6Z"
            style="block-size:auto;d:path(&quot;M 0 351 V 503.3 H 152.2 V 351 Z M 109.6 473.1 A 71.38 71.38 0 0 1 84.9 477.2 C 69.1 477.2 55.7 472.6 46.2 464 C 36.2 455 31 442 30.9 426.3 C 30.9 396.8 53.6 375.4 84.8 375.4 A 89.61 89.61 0 0 1 109 378.9 L 110.9 379.5 L 109.8 400.6 L 106.5 399.2 A 49.44 49.44 0 0 0 88.1 395.6 C 70 395.6 57.8 407.9 57.8 426.3 C 57.8 445.5 69 457 87.7 457 A 45.85 45.85 0 0 0 106.8 453.3 L 110.1 451.8 L 111.3 472.4 Z&quot;);fill:rgb(191, 191, 191);height:auto;inline-size:auto;overflow-x:visible;overflow-y:visible;perspective-origin:0px 0px;transform-origin:0px 0px;width:auto;" />
        <polygon class="cls-1" points="238.32 432.7 262.52 432.7 250.63 399.6 238.32 432.7"
            style="block-size:auto;fill:rgb(191, 191, 191);height:auto;inline-size:auto;overflow-x:visible;overflow-y:visible;perspective-origin:0px 0px;transform-origin:0px 0px;width:auto;" />
        <path class="cls-1"
            d="M172.27,351V503.3H329.58V351ZM276.92,475.7l-8.3-24h-36.4l-8.5,24H197.83l37.7-99h30.7l37.8,99Z"
            style="block-size:auto;d:path(&quot;M 172.27 351 V 503.3 H 329.58 V 351 Z M 276.92 475.7 L 268.62 451.7 H 232.22 L 223.72 475.7 H 197.83 L 235.53 376.7 H 266.23 L 304.03 475.7 Z&quot;);fill:rgb(191, 191, 191);height:auto;inline-size:auto;overflow-x:visible;overflow-y:visible;perspective-origin:0px 0px;transform-origin:0px 0px;width:auto;" />
        <path class="cls-1" d="M415.4,395.7H409v61h4c20.2,0,30.9-11.3,30.9-31.8C443.9,406.4,433.8,395.7,415.4,395.7Z"
            style="block-size:auto;d:path(&quot;M 415.4 395.7 H 409 V 456.7 H 413 C 433.2 456.7 443.9 445.4 443.9 424.9 C 443.9 406.4 433.8 395.7 415.4 395.7 Z&quot;);fill:rgb(191, 191, 191);height:auto;inline-size:auto;overflow-x:visible;overflow-y:visible;perspective-origin:0px 0px;transform-origin:0px 0px;width:auto;" />
        <path class="cls-1"
            d="M348.8,351V503.3H501.1V351ZM416,475.7H383v-99h35.6c33.6,0,52.1,17.2,52.1,48.2C470.7,456.7,450.2,475.7,416,475.7Z"
            style="block-size:auto;d:path(&quot;M 348.8 351 V 503.3 H 501.1 V 351 Z M 416 475.7 H 383 V 376.7 H 418.6 C 452.2 376.7 470.7 393.9 470.7 424.9 C 470.7 456.7 450.2 475.7 416 475.7 Z&quot;);fill:rgb(191, 191, 191);height:auto;inline-size:auto;overflow-x:visible;overflow-y:visible;perspective-origin:0px 0px;transform-origin:0px 0px;width:auto;" />
    </g>
</svg>